<svg viewBox="0 0 64 64" xmlns="http://www.w3.org/2000/svg" fill="#000000"><g id="SVGRepo_bgCarrier" stroke-width="0"></g><g id="SVGRepo_tracerCarrier" stroke-linecap="round" stroke-linejoin="round"></g><g id="SVGRepo_iconCarrier"> <path d="m11.61 21.55c1.45-1.32.19-4.94 4.06-7.06s6.13-1.38 6.13-1.38a5.67 5.67 0 0 1 1.87-.56c1.06-.13 2.56.5 6-1s5-2.94 8-3.06 7.81.93 9.94 2.93 2.25 7.5 5.12 11.88 5.44 8.19 5.38 11.19-1.94 5.93-5.19 10.31a52.15 52.15 0 0 1 -6.5 7.56c-1 .88-3.56 3.5-7.75 3.13s-8-2.25-9.56-2.63a8.8 8.8 0 0 0 -4.75-.12 25.69 25.69 0 0 1 -6.75 1.12c-1.56-.12-5.31-2.62-7.31-7s-5-14.69-4.3-17.69 3.55-5.75 5.61-7.62z" fill="#f4f4f0"></path> <path d="m13.23 21.86c.67-1 1.5-4.56 2.75-5.5s4.38-2.19 4.94-1.75a8.48 8.48 0 0 0 4.81 3c3.5.94 6 1.06 8.38-1.19a5.43 5.43 0 0 0 1.94-4.62 3 3 0 0 1 .56-1.38c.25-.18 8.25.32 10.06 2.63s2.25 8.75 4.94 12.75 4.19 6.06 4.19 8.62-.69 4.82-3.5 8.07-6.82 9.31-8.82 10.25a12.59 12.59 0 0 1 -7.31.81c-2.37-.5-5.06-3.38-9.25-2.94s-6.37 2.39-9.75 1.31-6.44-8.75-7.62-13.31-2.75-8.31-1.19-10.81 4.19-4.94 4.87-5.94z" fill="#c6bf95"></path> <path d="m23.05 14.36c.32-.07 1.25 0 4.06-.44s6.31-2.87 6.56-2.43.06 3.12-1.06 4.06-3.88 1.12-5.63.81-4.5-1.87-3.93-2z" fill="#bb6868"></path> <path d="m16 19.74a5.88 5.88 0 0 1 1.55-3c.58-.33 2.37-.88 2.5-.58s.45.75.12.91-1.79.25-2 .79a10.68 10.68 0 0 1 -1.17 2.14c-.27.2-.89-.1-1-.26z" fill="#f4f4f0"></path> <path d="m10.94 26.82c.26-.22 1.54.21 1.38.5s-1.46 1.25-1.46 2.54.41 2.29.08 2.42-1.21.46-1.29-.08a8.64 8.64 0 0 1 -.08-2.55 11.84 11.84 0 0 1 1.37-2.83z" fill="#f4f4f0"></path> <path d="m40.82 13.9a2.42 2.42 0 0 1 3.5 2.59c-.38 2.29-3.38 2.25-4.34 1.37a2.5 2.5 0 0 1 .84-3.96z" fill="#f4f4f0"></path> <path d="m41.33 15a1.21 1.21 0 0 1 1.76 1.3c-.19 1.15-1.7 1.13-2.18.69a1.25 1.25 0 0 1 .42-1.99z" fill="#bb6868"></path> <path d="m29.19 21c.81-.26 2.81 0 2.63 2s-2.46 1.54-3.38 1.08-.92-2.72.75-3.08z" fill="#f4f4f0"></path> <path d="m29.55 22c.36-.09 1.22 0 1.13.89s-1.05.67-1.45.47a.8.8 0 0 1 .32-1.36z" fill="#bb6868"></path> <path d="m19.61 25.2c1.42-.68 5-.3 7.54.83s1.85 2.58.85 6.08-1.89 5.89-2.6 6.79a6.32 6.32 0 0 1 -2.67 1.84c-.54.08-2.58.16-3-.29a4.19 4.19 0 0 0 -2.33-1.84c-1.29-.25-2.63 0-3.42-1.75a7.19 7.19 0 0 1 .5-6.33 13.75 13.75 0 0 1 5.13-5.33z" fill="#f4f4f0"></path> <path d="m20.32 26.07c.8-.3 4.25.5 5.45.88s2.05 1.08 1.88 2.12a58.3 58.3 0 0 1 -2.13 6.08c-.87 2.38-.87 2.92-2.16 3.71s-2.25 1.09-2.59.75a6.33 6.33 0 0 0 -2.87-2c-1.5-.37-2.63-.66-2.79-1.12a7.78 7.78 0 0 1 .37-5.38c1.17-2.11 3.59-4.58 4.84-5.04z" fill="#bb6868"></path> <path d="m39.11 21.65a5.75 5.75 0 0 1 7.46 2.71 5.14 5.14 0 0 1 -2.13 7.09c-2.12.91-6.25 1.45-8-1.17s-1.12-6.5 2.67-8.63z" fill="#f4f4f0"></path> <path d="m41.77 22.24a4.77 4.77 0 0 1 3.63 2.58c1.08 2.17.67 3.5-.08 4.54a5.68 5.68 0 0 1 -5.55 1.79 3.61 3.61 0 0 1 -2.87-2.95c-.08-.63-.17-1.71 0-1.71s1.33 2.37 1.67 2.29.66-.83.54-1a16.06 16.06 0 0 1 -1.58-2.71c.12-.12.54-1.12.75-.87s1.33 3.25 1.58 3.08.67-.92.5-1.21-1.54-2.5-1.33-2.71 1.16-.91 1.33-.75.71 2.17 1 2.21a.6.6 0 0 0 .64-.62c-.06-.3-.52-1.88-.23-1.96z" fill="#bb6868"></path> <path d="m16.07 33.4c-.13-.3.5-.87.83-.58s1.87 3.13 1.58 3.33-.54.34-.75.25a21.16 21.16 0 0 1 -1.66-3z" fill="#f4f4f0"></path> <path d="m17.61 30.86c.06-.29.54-.66.83-.5a22.57 22.57 0 0 1 2 4.42.7.7 0 0 1 -.5.79 28.93 28.93 0 0 1 -2.33-4.71z" fill="#f4f4f0"></path> <path d="m19.44 28.78c-.06-.2.54-.75.79-.58a12.31 12.31 0 0 1 1.5 3.87c-.08.58-.37.92-.58.75a38.56 38.56 0 0 1 -1.71-4.04z" fill="#f4f4f0"></path> <path d="m21.69 27.61c0-.24.83-.37 1-.25a4 4 0 0 1 .46 1.92c-.17.37-.42.75-.67.46a6.45 6.45 0 0 1 -.79-2.13z" fill="#f4f4f0"></path> <path d="m31.9 33.82a1.83 1.83 0 0 1 2.54 1.92c0 1.91-2.54 2-3.42 1.25s-.7-2.42.88-3.17z" fill="#f4f4f0"></path> <path d="m32.24 34.84a.74.74 0 0 1 1 .78c0 .79-1 .82-1.39.51s-.26-.98.39-1.29z" fill="#bb6868"></path> <path d="m49.38 30.93a2.29 2.29 0 0 1 3.18 2.4c0 2.39-3.18 2.5-4.27 1.56s-.89-3.02 1.09-3.96z" fill="#f4f4f0"></path> <path d="m49.7 31.89a1.27 1.27 0 0 1 1.77 1.33c0 1.34-1.77 1.39-2.38.87a1.35 1.35 0 0 1 .61-2.2z" fill="#bb6868"></path> <path d="m24.23 44c1.18-.54 3.79.25 3.25 2.5s-3.16 1.62-4 .91a2 2 0 0 1 .75-3.41z" fill="#f4f4f0"></path> <path d="m24.61 44.74c.72-.33 2.33.15 2 1.54s-1.94 1-2.45.56a1.25 1.25 0 0 1 .45-2.1z" fill="#bb6868"></path> <path d="m35.69 42.86c.87-.32 1.67.79 3.54.25s4.04-1.41 5.77-1.11a2.37 2.37 0 0 1 2.29 1.91 5.43 5.43 0 0 1 -.41 2.63 33 33 0 0 1 -2.88 2.57c-.91.88-1.46 1.71-2.46 1.54s-1.7-.83-3.25-.87a7.12 7.12 0 0 1 -3.08-.46c-.79-.37-2.42-1.75-2.33-2.75a6.37 6.37 0 0 1 2.81-3.71z" fill="#f4f4f0"></path> <path d="m35.23 44.53s.09 2.42.34 2.5.66.12.66-.08-.33-3 0-3.05.71.05.75.17-.08 3.13.25 3.17.67.16.67 0 0-3 0-3 .5 0 .58.12 0 3 .34 3.09.66 0 .66-.21a20.84 20.84 0 0 1 -.08-3.24c.17 0 1-.46 1-.29s0 2.41.21 2.41.83 0 .83-.29-.21-2.21 0-2.33 1.17-.5 1.21-.33-.08 1.62.09 1.62.66 0 .66-.29 0-1.54.17-1.58 2.25 0 2.5.54a3.89 3.89 0 0 1 .12 2.16c-.16.25-1.79 1.42-2.54 2.34s-1.33 1.58-1.91 1.62-1.71-.71-2.67-.87-2.54 0-3.42-.42a2.22 2.22 0 0 1 -1.37-1.58 4.7 4.7 0 0 1 .95-2.18z" fill="#bb6868"></path> <g fill="#f4f4f0"> <path d="m36.32 37.24c-.27-.18.79-.46 1-.29s1.55 3.37 1.25 3.58a2.28 2.28 0 0 1 -1 .21s-1.13-3.42-1.25-3.5z"></path> <path d="m37.82 35.32c.14-.15.75-.62 1-.42a9.85 9.85 0 0 1 .87 3.71c-.21.25-.91.42-1 .17a24.72 24.72 0 0 1 -.87-3.46z"></path> <path d="m40.32 34.49c.12-.17.7-.38.79-.09a14.94 14.94 0 0 1 .37 3.17c-.16.13-.79.42-.91.08a13.65 13.65 0 0 1 -.25-3.16z"></path> <path d="m45.77 39.53c.14.13 3.15 2.14 3.15 2.67s-.06 1-.73.54a30.94 30.94 0 0 1 -3-2.29c0-.21.5-1 .58-.92z"></path> <path d="m46 37.7c-.05-.23.46-.63.71-.55s3.79 3.67 3.59 3.84-.42.5-.63.5a27 27 0 0 1 -3.67-3.79z"></path> <path d="m48.07 36.65s.41-.7.75-.5 2.75 2.84 2.66 3.13-.54.79-.75.67-2.54-3.17-2.66-3.3z"></path> </g> </g></svg>
