<svg height="200px" width="200px" version="1.1" id="Layer_1" xmlns="http://www.w3.org/2000/svg" xmlns:xlink="http://www.w3.org/1999/xlink" viewBox="0 0 511.999 511.999" xml:space="preserve" fill="#000000"><g id="SVGRepo_bgCarrier" stroke-width="0"></g><g id="SVGRepo_tracerCarrier" stroke-linecap="round" stroke-linejoin="round"></g><g id="SVGRepo_iconCarrier"> <path style="fill:#E5E5E5;" d="M496.129,209.771c-4.238-20.552-4.892-41.59-2.602-62.45c0.195-1.775,0.295-3.586,0.295-5.424 c0-11.581-3.984-22.057-10.416-29.617c-11.896-13.979-22.412-29.019-31.534-44.948c-13.746-24.007-40.23-40.265-70.654-40.265 c-2.286,0-4.55,0.092-6.787,0.274c-18.686,1.514-37.438-1.032-55.417-6.344c-21.71-6.415-44.298-9.849-67.129-9.849 c-129.451,0-242.278,114.705-240.74,247.726c0.131,11.352,1.035,22.518,2.661,33.448c3.682,24.75,2.806,49.928-1.594,74.561 c-2.91,16.288,0.833,35.298,11.709,52.214c6.862,10.671,15.66,19.1,25.244,24.901c11.575,7.007,21.965,15.757,30.606,26.169 c11.998,14.457,31.079,31.818,51.326,30.529c3.931-0.25,7.757-0.787,11.446-1.581c24.369-5.246,49.563-5.367,74.171-1.397 c11.714,1.89,23.705,2.95,35.913,3.114c134.601,1.819,246.108-106.334,248.211-240.931 C501.11,242.704,499.465,225.943,496.129,209.771z"></path> <g> <ellipse style="fill:#bcc8e7;" cx="91.827" cy="306.458" rx="36.174" ry="50.477"></ellipse> <ellipse style="fill:#bcc8e7;" cx="136.716" cy="406.621" rx="30.242" ry="21.148"></ellipse> <ellipse style="fill:#bcc8e7;" cx="422.959" cy="255.981" rx="33.392" ry="44.522"></ellipse> </g> <path d="M255.999,44.569c-57.802,0-111.774,22.882-151.974,64.431c-4.275,4.418-4.158,11.464,0.259,15.739 c2.16,2.091,4.951,3.131,7.738,3.131c2.91,0,5.817-1.134,8.001-3.39c35.969-37.176,84.26-57.649,135.976-57.649 c6.146,0,11.131-4.983,11.131-11.131S262.147,44.569,255.999,44.569z"></path> <path d="M83.255,153.925c1.902,1.274,4.055,1.884,6.185,1.884c3.588,0,7.11-1.732,9.257-4.938l0.228-0.341 c3.42-5.107,2.055-12.021-3.053-15.442c-5.106-3.42-12.019-2.055-15.442,3.053l-0.228,0.341 C76.782,143.59,78.147,150.504,83.255,153.925z"></path> <path d="M507.03,207.523L507.03,207.523c-3.861-18.718-4.681-38.564-2.439-58.989c0.24-2.192,0.362-4.424,0.362-6.637 c0-13.845-4.641-26.926-13.071-36.831C480.568,91.77,470.357,77.214,461.531,61.8c-16.198-28.29-46.972-45.864-80.312-45.864 c-2.56,0-5.145,0.105-7.686,0.309c-16.303,1.321-33.589-0.672-51.363-5.925c-23.143-6.837-46.789-10.305-70.284-10.305 c-32.875,0-65.231,6.933-96.17,20.608c-29.716,13.134-56.648,31.794-80.045,55.466c-23.862,24.14-42.594,52.004-55.674,82.819 C6.342,191.078-0.381,224.753,0.017,259.003c0.135,11.696,1.072,23.458,2.782,34.956c3.358,22.567,2.838,46.444-1.542,70.966 c-3.509,19.646,1.339,41.586,13.304,60.192c7.536,11.723,17.511,21.544,28.842,28.403c10.785,6.529,20.141,14.521,27.804,23.755 c13.269,15.99,33.848,34.624,57.703,34.621c0.958,0,1.927-0.03,2.896-0.092c4.413-0.282,8.814-0.889,13.081-1.809 c22.191-4.776,45.76-5.21,70.057-1.289c12.334,1.99,24.962,3.084,37.535,3.255c1.178,0.016,2.332,0.023,3.506,0.023 c139.293,0,253.802-112.293,255.985-251.91C512.246,242.435,510.584,224.754,507.03,207.523z M489.712,259.728 c-1.992,127.48-106.537,229.997-233.731,229.997c-1.064,0-2.134-0.008-3.201-0.022c-11.489-0.156-23.027-1.156-34.291-2.973 c-12.124-1.957-24.105-2.934-35.883-2.934c-14.489,0-28.664,1.48-42.405,4.438c-3.192,0.687-6.494,1.143-9.809,1.353 c-12.142,0.781-27.426-8.9-42.053-26.528c-9.253-11.149-20.492-20.766-33.408-28.583c-8.447-5.112-15.931-12.512-21.646-21.398 c-8.961-13.935-12.648-30.058-10.115-44.238c4.805-26.901,5.359-53.196,1.646-78.155c-1.562-10.504-2.418-21.249-2.541-31.939 C21.571,197.829,46.804,136.958,91.502,91.74c43.636-44.144,102.095-69.462,160.384-69.462c21.357,0,42.881,3.16,63.976,9.392 c20.412,6.032,40.419,8.309,59.469,6.765c1.945-0.157,3.926-0.237,5.889-0.237c25.381,0,48.752,13.283,60.995,34.665 c9.505,16.603,20.514,32.292,32.716,46.631c5.006,5.882,7.764,13.839,7.764,22.403c0,1.406-0.077,2.823-0.229,4.21 c-2.497,22.737-1.566,44.914,2.765,65.913C488.453,227.659,489.963,243.712,489.712,259.728z"></path> <path d="M126.453,348.636c8.176-11.409,12.679-26.387,12.679-42.176c0-15.789-4.502-30.767-12.679-42.176 c-8.85-12.348-21.471-19.431-34.626-19.431s-25.776,7.082-34.626,19.431c-8.176,11.409-12.679,26.387-12.679,42.176 c0,15.79,4.502,30.768,12.679,42.176c8.85,12.348,21.471,19.431,34.626,19.431S117.602,360.984,126.453,348.636z M91.826,345.805 c-13.575,0-25.044-18.018-25.044-39.345s11.469-39.345,25.044-39.345s25.044,18.017,25.044,39.345 C116.869,327.788,105.401,345.805,91.826,345.805z"></path> <path d="M136.718,374.339c-23.197,0-41.368,14.178-41.368,32.278s18.171,32.278,41.368,32.278s41.369-14.178,41.369-32.278 S159.915,374.339,136.718,374.339z M136.718,416.635c-11.664,0-19.107-5.934-19.107-10.017c0-4.084,7.444-10.017,19.107-10.017 c11.664,0,19.108,5.934,19.108,10.017C155.826,410.701,148.383,416.635,136.718,416.635z"></path> <path d="M422.958,200.333c-24.549,0-44.522,24.966-44.522,55.653s19.973,55.653,44.522,55.653c24.549,0,44.522-24.966,44.522-55.653 S447.508,200.333,422.958,200.333z M422.958,289.376c-12.067,0-22.261-15.291-22.261-33.392c0-18.1,10.194-33.392,22.261-33.392 c12.067,0,22.261,15.291,22.261,33.392C445.219,274.084,435.025,289.376,422.958,289.376z"></path> </g></svg>
