<svg viewBox="0 0 64 64" xmlns="http://www.w3.org/2000/svg" fill="#000000"><g id="SVGRepo_bgCarrier" stroke-width="0"></g><g id="SVGRepo_tracerCarrier" stroke-linecap="round" stroke-linejoin="round"></g><g id="SVGRepo_iconCarrier"> <path d="m51.41 37.46c-.87 0-1.53 1-1.75 1-.41.09-.95 0-1.58 0a3.24 3.24 0 0 0 -2.62.91c-.92 1-1.38 5.38-.13 6.42s3.25.58 4 .46 1 .21 1.87.25a4.27 4.27 0 0 0 3.63-2c.92-1.59.12-4.34-.33-5.38a3.87 3.87 0 0 0 -3.09-1.66zm-32.87-18.25c2 .63 5.08-.2 6.87-.33s4.75.54 6.13.46 3.21-1.92 3.79-5-.5-7-3.37-8-6.34.62-7.92 1.2-3.36.46-5.83 1.67-2.42 2.55-2.46 4 .83 5.38 2.79 6zm18.25 1.55c.42.12 9.5-10.17 9.62-10.5s-.7-1.09-1.12-1.09-9.85 9.77-9.75 10.25a3.41 3.41 0 0 0 1.25 1.34zm15.75-7c.33.08 2.58-2.84 2.71-3.21s-.63-.46-1-.5-3 2.51-2.79 2.75a3.65 3.65 0 0 0 1.08.96zm-39.42 9.54c.34-.59-1.83 0-2.41.25a6.83 6.83 0 0 0 -2.92 3.33 8.79 8.79 0 0 0 -1.17 4.12 1.94 1.94 0 0 0 1.79.29c.42-.21.3-1.67.92-3.71s3.46-3.7 3.79-4.28zm23.38-15.25a10 10 0 0 0 2.37-2.21c.09-.25-.12-.67-.62-.83s-2.79 1.25-2.71 2c.04.37.58 1.08.96 1.04zm19.79 8.62c-1.79-2.37-5.63-1.08-6.38-.87s-2.8-.2-3.75.54c-3 2.33-2.25 6.46-2.12 7.5a2.53 2.53 0 0 0 2.17 2c.91.08 3.62 1.29 5.08 1.62s4 .21 5-1.37 1.79-7.04 0-9.42zm-6.71 14.54c.13-.41-.08-.33-.46-.41s-3 2.18-3.33 2.58c-.13.17.75 1.17 1.08 1.17s2.59-2.92 2.71-3.34zm-18.58 26.25c-.25-.08-1 .21-3.92.17a4.88 4.88 0 0 1 -3.54-1.17c-.33 0-1 .63-1.25 1s.62.55 1.12.84a9.42 9.42 0 0 0 4 .71 8.42 8.42 0 0 0 3.84-.55c0-.16 0-.91-.25-1zm7.66-30.62c-2.37-1.42-3.91-4-7.08-4.25s-5.29 1.56-8 1.92c-3.83.5-7.17 1-9.83 3.12a11.36 11.36 0 0 0 -4 8.13 5 5 0 0 0 1.67 4.45c.79.75-.13 2.25-.25 3.5a11.39 11.39 0 0 0 3.91 7.88c2.88 2.17 4.46 2 7 2s3.58.54 7.5 1.25 5 .17 7.88-2.46 1.54-5.54 1.79-6.08 1.54-1.21 2.71-2.54 2-5.67 1.66-8.67-2.62-6.83-4.96-8.25z" fill="#181816"></path> <path d="m21.16 9.55a3.63 3.63 0 0 0 3.21 1.75 3.57 3.57 0 0 0 3.09-2.38c.29-.71.16-1.25.29-1.25s2.87-.91 4.29.92a7.19 7.19 0 0 1 1.21 6.25c-.63 1.67-2.13 2.92-3 2.92a37.37 37.37 0 0 0 -6.59-.42c-2.79.25-3.25.46-3.79.21a6.45 6.45 0 0 1 -2-3.46 4.47 4.47 0 0 1 .92-3.58 12.86 12.86 0 0 1 2.37-.96z" fill="#f0e6db"></path> <path d="m22.46 9.17c-.05-.2 3.66-1.25 3.79-1a2.36 2.36 0 0 1 -1.59 2.09 1.92 1.92 0 0 1 -2.2-1.09z" fill="#f0e6db"></path> <path d="m28.75 8.76c-.07-.22.62-.34.83-.17s1.25 2.62 1 2.83-.75.42-.91.13-.88-2.67-.92-2.79z" fill="#181816"></path> <path d="m30.71 8.88c-.06-.16.45-.17.75.13s.87 1.66.62 1.83-.42.29-.62.12a10.9 10.9 0 0 1 -.75-2.08z" fill="#181816"></path> <path d="m20.87 13.55c1.13-.65 3.13-.42 3.13 1.45s-2.79 2.17-3.5 1.42a1.75 1.75 0 0 1 .37-2.87z" fill="#181816"></path> <path d="m21.58 14.26c.48-.29 1.42.08 1.42.7s-1 .84-1.42.67a.78.78 0 0 1 0-1.37z" fill="#ffffff"></path> <path d="m28 13.05c1.25-.78 3.91 0 3.62 1.79s-2.25 2.12-3.33 2-3.63-1.71-.29-3.79z" fill="#181816"></path> <path d="m28.5 13.76c.44-.22 2-.21 2 .87s-1.42 1.5-2.33 1.25-.88-1.54.33-2.12z" fill="#ffffff"></path> <path d="m47.25 17.8c.35-.34 1.54-.42 1.62-.17s.29 2 1.46 2.67a2.66 2.66 0 0 0 2.58.37c.71-.25 1.21-.62 1.13-.79s-.33-.67-.5-.67-1.67 1.09-2.67.25-.62-2-.16-2.16 3.29-.59 4 .37.62 7 .21 6.71-.88-1.67-1.13-1.67-.79.21-.67.5 1.38 1.71 1.13 2-.71.63-.92.46-.66-2.21-1.08-2.17-1 .25-.83.5.66 1.46.41 1.5-2.12-.58-3-.66-2.17.12-2.62-1.09-.46-4.49 1.04-5.95z" fill="#f0e6db"></path> <path d="m48.41 21.26a1.82 1.82 0 0 1 2.34 1.41c0 1-1.79 1.79-2.75 1.09s-1.13-1.88.41-2.5z" fill="#181816"></path> <path d="m48.81 22.16a.6.6 0 0 1 .77.46c0 .35-.59.59-.91.36s-.37-.62.14-.82z" fill="#ffffff"></path> <path d="m46.58 40.13c.14-.17.92-.37.88-.17s-.59 1.13.5 1.59a3.52 3.52 0 0 1 1.41.91s.21 2.13-.12 2.13-.59.08-.63-.13 0-1.5-.21-1.54-.7-.25-.75 0 .13 1.88-.08 1.75-.5.13-.87-.46-.5-3.62-.13-4.08z" fill="#f0e6db"></path> <path d="m52 39.59c.12-.08.54-.25.75-.08a4 4 0 0 1 .66 2.83c-.16 1.5-.37 1.83-.66 1.92s-.25.25-.3.08 0-1.46-.25-1.5-.79 0-.83.12.21 1.8-.12 1.75-.88 0-.92-.25a7.77 7.77 0 0 1 -.08-2c.12 0 1.54-.09 1.83-1a3.12 3.12 0 0 0 -.08-1.87z" fill="#f0e6db"></path> <path d="m49.25 39.59c1.38-.17 2 .75 1.87 1.33s-.87 1-1.87.42-1.04-1.63 0-1.75z" fill="#ffffff"></path> <path d="m23.25 26c1.45-.17 3.12-1 5.5-1.25a8.32 8.32 0 0 1 6.5 1.67 25.16 25.16 0 0 1 5 4.83 9.39 9.39 0 0 1 1.41 7.92c-.79 3.08-1.12 3.71-2.12 4.46s-2.21 1.87-2.25 2.29 1 3.63-1 5.42-3.5 2.37-4.54 2.29-4.5-1.38-8-1.42-5.63-.21-7.21-1.41a11.64 11.64 0 0 1 -3.29-5.34c0-.75-.21-1.45.08-1.58s3.21-.62 4.08-1.33.71-2.29 0-3.38-1.25-1.96-2.41-2.17-2.75 1.17-2.75 1.17a3.73 3.73 0 0 1 -.55-2.75c.3-1.42 1.05-4.71 3.3-6.75s5.79-2.41 8.25-2.67z" fill="#f0e6db"></path> <path d="m17.16 28.76c.28-.19 1.09.29.92.58a15.78 15.78 0 0 0 -2 2.67c-.37 1-.16 1.58-.54 1.75s-.92.62-1 0a5.34 5.34 0 0 1 .71-2.63 9.52 9.52 0 0 1 1.91-2.37z" fill="#181816"></path> <path d="m28.62 26.88c1.92-.5 3.59.58 4.67 1.25a5.88 5.88 0 0 0 2.42 1.13c.87.12 1.5.33 1.66 1s0 2.33-.5 2.54-2.58.25-3.58 1.08-1.33 1.71-2.71 2-2.83.54-4.37-.71-3-6.87 2.41-8.29z" fill="#181816"></path> <path d="m29 27.88a5.56 5.56 0 0 1 3.29.83c1.12.67.87.8 2 1.09s1.87.41 2 .87.37 1.29-.17 1.46-2.5.13-3.46.79-1.66 2.29-3.75 2.08a3.38 3.38 0 0 1 -2.91-3.2 3.69 3.69 0 0 1 3-3.92z" fill="#ffffff"></path> <path d="m35.58 37a2.6 2.6 0 0 1 3.63 3.25c-.92 2.55-3.63 2.84-4.84 1.42a3.13 3.13 0 0 1 1.21-4.67z" fill="#181816"></path> <path d="m35.94 37.91a1.65 1.65 0 0 1 2.31 2.09 1.84 1.84 0 0 1 -3.08.91 2 2 0 0 1 .77-3z" fill="#ffffff"></path> <path d="m13.12 39.13c.17-.12 1-1.12 2.09-.71s2 2.84 1.62 3.13a12.62 12.62 0 0 1 -3.21 1.12c-.08-.12.38-1.71.21-2.25a6 6 0 0 0 -.71-1.29z" fill="#ffffff"></path> <path d="m24.75 42.92c.44-.19 3.62-.33 4.21.21s.87 2.21 2.2 2.88 2 1.12 2 2.29a2.25 2.25 0 0 1 -2 2.08c-.79 0-2.91-.92-4.58-.92a8.4 8.4 0 0 1 -3.87-.58 2.88 2.88 0 0 1 -.88-2.71c.33-.5 1.29-2.54 2.92-3.25z" fill="#181816"></path> <path d="m25.46 43.92c.68-.28 2.62-.29 2.91.21s.67 1.67 1.29 2 2.59 1.17 2.55 1.87-.92 1.59-1.05 1.5a8.25 8.25 0 0 0 -4.12-1c-2.21.09-2.58.38-3.21 0s-1.12-1.25-.92-1.75a8.84 8.84 0 0 1 2.55-2.83z" fill="#ffffff"></path> <g fill="#181816"> <path d="m20.54 37.26a.56.56 0 0 1 1 0c.21.46 1.17 5 .88 5.17s-.59.54-.8.21a32.31 32.31 0 0 1 -1.08-5.38z"></path> <path d="m22.91 37.17a.56.56 0 0 1 .84 0c.12.25.91 3.8.54 3.92s-.71.38-.88-.08-.75-3.46-.5-3.84z"></path> <path d="m25.41 37.63c.1-.28.71-.12.84.08a18.89 18.89 0 0 1 .37 3.38c-.08.17-.71.21-.83-.08a25.7 25.7 0 0 1 -.38-3.38z"></path> <path d="m27.79 38.13a.46.46 0 0 1 .71 0c.25.25 1.08 3.42.58 3.46s-.75.21-1-.38a9.2 9.2 0 0 1 -.29-3.08z"></path> <path d="m30.16 37.71c.18-.17.75-.41.84.09s.12 1.33-.17 1.46-.62.45-.75 0a3.32 3.32 0 0 1 .08-1.55z"></path> <path d="m16 45.21c0-.31.67-.37.79 0s.5 1.42.29 1.5a.71.71 0 0 1 -.66.09c-.26-.13-.42-1.21-.42-1.59z"></path> </g> </g></svg>
