<svg viewBox="0 0 64 64" xmlns="http://www.w3.org/2000/svg" fill="#000000"><g id="SVGRepo_bgCarrier" stroke-width="0"></g><g id="SVGRepo_tracerCarrier" stroke-linecap="round" stroke-linejoin="round"></g><g id="SVGRepo_iconCarrier"> <path d="m8.34 28.73s-1.63-.91-1.67-1.25-.33-19.75.12-20.16 6-.25 6-.09-.62 20.88-.79 21.17-1.37.21-1.5.38-.29.87-.12.87 4.62.54 4.66.25a4 4 0 0 0 0-.83 8.25 8.25 0 0 1 -1.5-.63c-.12-.16.13-21.12.29-21.33s6-.29 6 .08-.71 21-.87 21.29-1.67.59-1.67.71-.17.75 0 .75 5.88 0 6.33 0 .92-.12.92-.12-.37-3 .25-3.29a25.87 25.87 0 0 1 4.13-.21l-.13-1.84s-7.87-.2-8-.58-.37-4.37 0-4.58 4-.17 3.92-.29-.12-.71-.12-.71-1.3-.34-1.3-.54-.41-4.05-.2-4.13 7.5-.17 7.58.17a22.16 22.16 0 0 1 -.25 4.5c-.21 0-2.63 0-2.63 0l-.08.75 8.08.41s.13-.46 0-.46-.62-.25-.91-.29-.5 0-.63-.16-.66-1.3-.54-1.38.88-.46.88-.46-.84-1.87.16-3 1.75-.75 2.25-.46a3.42 3.42 0 0 1 .92 1s1.25-.7 1.75-.58a.83.83 0 0 1 .42 1.25 1.47 1.47 0 0 1 -1 .58l-.3 1.09s1 .5.84 1-.92 1.29-1.46 1.21l-1.38-.21.05.75s5.7-.09 5.83.41.33 5.3-.29 5.55-7.84-.55-7.88-.3 0 1.63 0 1.63 3.54.87 3.63 1.17-.13 2 0 2 8.54.12 8.54 0-.13-.88-.13-.88-2.12-.37-2.21-.71-.91-20.41-.45-20.75 6.12-.58 6.12-.29.05 20.63-.16 20.92a6.23 6.23 0 0 1 -1.46.83s-.21.79 0 .84a30.83 30.83 0 0 0 4.71 0c-.05-.21-.09-.55-.09-.55s-1.71-.58-1.75-.79-.41-21.04-.25-21.21 5.71-.33 5.84 0 .08 20.92-.05 21.17a7.85 7.85 0 0 1 -1.75.92 37.19 37.19 0 0 0 .05 3.79 12.79 12.79 0 0 1 2.37 1.25c0 .25-.42 11.58-.46 16.12s-.29 6.29-.58 6.42-5.08.37-5.25 0 0-9.46.12-14.83-.08-7.25.13-7.42 1.83-1.12 1.83-1.33-.04-1.32-.25-1.32a40.8 40.8 0 0 0 -4.58.09c-.08.12-.12 1.33.08 1.41s1.84.84 1.84 1.17-.63 21.88-.79 22.13a24.74 24.74 0 0 1 -5.84-.09c-.08-.21 0-21.87.17-22.16s2.5-1.21 2.5-1.42 0-1.29 0-1.29-8.37-.25-8.33-.13.21 1.13 0 1.25-4.17.17-4.17.38-.33.46 0 .58 6 .63 6 .83.13 6-.12 6.13-16.54 0-16.84-.25-.41-6-.25-6.29 6-.38 6-.54.17-.67 0-.67-3.87-.08-3.95-.33a11.71 11.71 0 0 1 -.17-1.46l-7.38.37.05 1a16.34 16.34 0 0 1 2.45 1.08c0 .17.46 22 .17 22.17s-5.62.58-5.75-.12-.09-21.84-.09-22.06 1.09-1.05 1.13-1.21.08-.84.08-.84l-4.83-.29v.79s2.5 1.05 2.54 1.55.13 22.12 0 22.12-5.5.42-5.67 0-.75-22.42-.62-22.62 1.83-.8 1.87-1.05-.16-3.5-.16-3.5z" fill="#babab5"></path> <g fill="#9ecef0"> <path d="m8.67 8.78c.29 0 2.17-.17 2.21.12a9.57 9.57 0 0 1 -.13 2.71 5.35 5.35 0 0 1 -2.29 0c-.08-.21-.12-2.79.21-2.83z"></path> <path d="m8.59 12.61a5.7 5.7 0 0 1 2.12.08v2.09s-2.29.25-2.29 0-.08-2 .17-2.17z"></path> <path d="m8.46 15.78a7 7 0 0 1 2.21.08c0 .17 0 2.58-.17 2.58h-2.12s0-2.62.08-2.66z"></path> <path d="m8.54 19.44a7.28 7.28 0 0 1 2 .09 10.51 10.51 0 0 1 .05 2.79 9 9 0 0 1 -2.17-.13 10.35 10.35 0 0 1 .12-2.75z"></path> <path d="m8.59 23.11s1.83 0 1.87.17a15.89 15.89 0 0 1 -.21 3.5c-.21 0-1.75.12-1.79-.09a24.52 24.52 0 0 1 .13-3.58z"></path> <path d="m15.42 8.94c.29 0 2.17-.16 2.21.13a9.57 9.57 0 0 1 -.13 2.71 5.51 5.51 0 0 1 -2.29 0c-.08-.21-.12-2.78.21-2.84z"></path> <path d="m15.34 12.78a5.49 5.49 0 0 1 2.12.08v2.08s-2.29.25-2.29 0-.08-2 .17-2.16z"></path> <path d="m15.21 15.94a7 7 0 0 1 2.21.09c0 .16 0 2.58-.17 2.58h-2.12s0-2.61.08-2.67z"></path> <path d="m15.29 19.61a7.76 7.76 0 0 1 2 .08 10.51 10.51 0 0 1 .05 2.79 9 9 0 0 1 -2.17-.12 10.33 10.33 0 0 1 .12-2.75z"></path> <path d="m15.34 23.28s1.83-.05 1.87.16a15.81 15.81 0 0 1 -.21 3.5c-.21 0-1.75.13-1.79-.08a24.52 24.52 0 0 1 .13-3.58z"></path> <path d="m46 8.84c.29 0 2.16-.21 2.21.08a9.69 9.69 0 0 1 -.06 2.71 5.24 5.24 0 0 1 -2.29 0c-.13-.16-.24-2.74.14-2.79z"></path> <path d="m46 12.68a5.6 5.6 0 0 1 2.13 0v2.08s-2.29.31-2.29.1-.12-2.01.16-2.18z"></path> <path d="m45.91 15.85a6.77 6.77 0 0 1 2.21 0c0 .16.11 2.58-.1 2.58h-2.13s-.06-2.54.02-2.58z"></path> <path d="m46.08 19.51a7.23 7.23 0 0 1 2 0 10.6 10.6 0 0 1 .1 2.79 9.14 9.14 0 0 1 -2.18-.04 10.43 10.43 0 0 1 .08-2.75z"></path> <path d="m46.21 23.17s1.83-.08 1.88.13a15.44 15.44 0 0 1 -.09 3.5c-.2.05-1.74.17-1.79 0a25.1 25.1 0 0 1 0-3.63z"></path> <path d="m52.92 8.84c.29 0 2.16-.21 2.21.08a9.67 9.67 0 0 1 -.07 2.71 5.24 5.24 0 0 1 -2.29 0c-.08-.16-.19-2.74.15-2.79z"></path> <path d="m52.92 12.68a5.61 5.61 0 0 1 2.13 0v2.08s-2.29.31-2.29.1-.08-2.01.16-2.18z"></path> <path d="m52.87 15.85a6.77 6.77 0 0 1 2.21 0 10.31 10.31 0 0 1 -.1 2.58h-2.13s-.06-2.54.02-2.58z"></path> <path d="m53 19.51c.36 0 1.92-.13 2 0a10.21 10.21 0 0 1 .11 2.79 9.14 9.14 0 0 1 -2.11-.04 10.43 10.43 0 0 1 0-2.75z"></path> <path d="m53.17 23.17s1.83-.08 1.88.13a15.44 15.44 0 0 1 -.13 3.5c-.2.05-1.74.17-1.79 0a25.1 25.1 0 0 1 .04-3.63z"></path> <path d="m52.79 54.73c.29.05 2.16.26 2.21-.1a13.74 13.74 0 0 0 0-3.29c-.2-.16-2.2-.31-2.29-.06s-.25 3.39.08 3.45z"></path> <path d="m53 50.08a5.59 5.59 0 0 0 2.13 0c0-.16 0-2.08 0-2.08s-2.29-.3-2.29-.1-.12 2 .16 2.18z"></path> <path d="m53.12 46.75a8.54 8.54 0 0 0 2.21 0c0-.15.1-2.26-.11-2.26h-2.13a22.2 22.2 0 0 0 .03 2.26z"></path> <path d="m53.29 43.67a10.76 10.76 0 0 0 2 0 5.73 5.73 0 0 0 .09-2.09 11.82 11.82 0 0 0 -2.16 0 5.65 5.65 0 0 0 .07 2.09z"></path> <path d="m53.53 37.76a8.57 8.57 0 0 0 1.88-.07 8.24 8.24 0 0 0 -.15-2.46 6 6 0 0 0 -1.8 0 13 13 0 0 0 .07 2.53z"></path> <path d="m53.34 40.83a11.23 11.23 0 0 0 2.08 0c0-.14 0-2.25-.18-2.29a8.2 8.2 0 0 0 -2 0 9.4 9.4 0 0 0 .1 2.29z"></path> <path d="m45.67 54.48c.29.05 2.16.26 2.21-.1a14.28 14.28 0 0 0 -.05-3.29c-.21-.16-2.2-.31-2.29-.06s-.21 3.39.13 3.45z"></path> <path d="m45.84 49.83a5.59 5.59 0 0 0 2.13 0v-2.12s-2.28-.3-2.29-.1-.09 2.04.16 2.22z"></path> <path d="m46 46.5a8.56 8.56 0 0 0 2.21 0c0-.15.09-2.26-.12-2.26l-2.09-.04a19.73 19.73 0 0 0 0 2.3z"></path> <path d="m46.17 43.42a10.8 10.8 0 0 0 2 0 6.21 6.21 0 0 0 .09-2.09 11.93 11.93 0 0 0 -2.17 0 5.65 5.65 0 0 0 .08 2.09z"></path> <path d="m46.4 37.51a8.55 8.55 0 0 0 1.88-.07 7.63 7.63 0 0 0 -.15-2.44 5.88 5.88 0 0 0 -1.79 0 12.25 12.25 0 0 0 .06 2.51z"></path> <path d="m46.21 40.58a11.23 11.23 0 0 0 2.08 0c.05-.14.06-2.25-.18-2.29a8.11 8.11 0 0 0 -2 0 9.42 9.42 0 0 0 .1 2.29z"></path> <path d="m16.16 54.36c.3 0 2.17.16 2.21-.2a14.41 14.41 0 0 0 -.2-3.29c-.22-.15-2.22-.2-2.29.05s-.05 3.4.28 3.44z"></path> <path d="m16.12 49.71a5.63 5.63 0 0 0 2.12-.14c0-.16-.09-2.08-.09-2.08s-2.3-.19-2.29 0 .01 2.06.26 2.22z"></path> <path d="m16.12 46.37a8.35 8.35 0 0 0 2.21-.12c0-.15 0-2.26-.22-2.25l-2.11.08a22.45 22.45 0 0 0 .12 2.29z"></path> <path d="m16.15 43.29a9.91 9.91 0 0 0 2-.11 5.85 5.85 0 0 0 0-2.09 12.63 12.63 0 0 0 -2.17.14 5.57 5.57 0 0 0 .17 2.06z"></path> <path d="m16.11 37.37a8.06 8.06 0 0 0 1.89-.16 8 8 0 0 0 -.26-2.44 5.65 5.65 0 0 0 -1.79.1 11.92 11.92 0 0 0 .16 2.5z"></path> <path d="m16.06 40.46a10.55 10.55 0 0 0 2.07-.16c.05-.14-.05-2.25-.28-2.27a7.73 7.73 0 0 0 -2 .1 9.29 9.29 0 0 0 .21 2.33z"></path> <path d="m9 54.2c.29 0 2.17.15 2.2-.21a13.86 13.86 0 0 0 -.2-3.29c-.21-.14-2.21-.2-2.29.06s-.01 3.39.29 3.44z"></path> <path d="m9 49.54a5.9 5.9 0 0 0 2.13-.13c0-.17-.09-2.08-.09-2.08s-2.3-.2-2.3 0 0 2.05.26 2.21z"></path> <path d="m9 46.21a8.23 8.23 0 0 0 2.2-.13c0-.14 0-2.25-.22-2.25l-2.12.09a20.09 20.09 0 0 0 .14 2.29z"></path> <path d="m9 43.12a9.81 9.81 0 0 0 2-.12 5.86 5.86 0 0 0 0-2.09 12.49 12.49 0 0 0 -2.16.15 5.76 5.76 0 0 0 .16 2.06z"></path> <path d="m9 37.21a8.74 8.74 0 0 0 1.88-.16 8.09 8.09 0 0 0 -.27-2.45 6 6 0 0 0 -1.79.1 12.74 12.74 0 0 0 .18 2.51z"></path> <path d="m8.93 40.29a10.65 10.65 0 0 0 2.07-.16c0-.13 0-2.25-.28-2.27a8.3 8.3 0 0 0 -2 .1 9.79 9.79 0 0 0 .21 2.33z"></path> </g> <path d="m24.42 14.69s5.17-.08 5.21.09a10.07 10.07 0 0 1 -.21 2.58c-.17 0-5 0-5.13-.17a10.06 10.06 0 0 1 .13-2.5z" fill="#f03c28"></path> <path d="m36.46 13.94c.17 0 .79.34.5.59s-.87.2-.92.45-.54.59.25.63a5.84 5.84 0 0 0 2.09-.61s-.63 1.58-.5 1.75.5.25.58.37.17.58 0 .63a2.28 2.28 0 0 1 -2.54-.8c-1.08-1.26-.75-2.8.54-3.01z" fill="#e9db44"></path> <path d="m22.75 20.69c.3-.4 5.34 0 10.46.17s7.75.25 7.88.5.12 2.12-.13 2.12-7.83-.66-8-.33a17.69 17.69 0 0 0 -.29 4.63c.21.12 3.75.66 3.83.95a4.54 4.54 0 0 1 0 1.13l-1-.75s-.33.37-.21.54 1.42 1.46 1.21 1.58-.42.25-.58.17-1.75-2.12-2-2.17a2.17 2.17 0 0 0 -.71.13l1.42 2.08a2.28 2.28 0 0 1 -.71 0c-.13-.08-1.46-1.75-1.75-1.79a.85.85 0 0 0 -.5.08l1.17 2s-.92.17-.92.58-.33 2.8.17 2.88 5.91.62 6 .87a2.16 2.16 0 0 1 .08.8s-1.08-.3-1.08-.05 1 1.88.75 2.09-.59.37-.67.21-2-2.55-2-2.55-.71 0-.67.17 1.71 2.17 1.5 2.27a3.73 3.73 0 0 1 -1 0 15.56 15.56 0 0 0 -1.62-2c-.21-.05-.54-.05-.59.16a11.24 11.24 0 0 0 1.09 1.88s-4.54-.09-6.54 0-2.67.12-2.67-.09a23.77 23.77 0 0 1 -.08-3.46c.16-.12 5.87-.12 5.91-.37s-.16-3-.16-3a32.52 32.52 0 0 1 -3.84-.46c-.12-.17-.33-3.75-.08-3.83s4.37 0 4.46-.46a26.18 26.18 0 0 0 -.17-4.54c-.17-.09-7.67-.17-7.83-.34a3.76 3.76 0 0 1 -.13-1.8z" fill="#e6e4da"></path> <path d="m27.29 28.4c.08-.1.92-.21 1 0a10.83 10.83 0 0 1 0 2.67c-.12.12-.75.29-.91 0a8.62 8.62 0 0 1 -.09-2.67z" fill="#babab5"></path> </g></svg>
