<svg height="200px" width="200px" version="1.1" id="Layer_1" xmlns="http://www.w3.org/2000/svg" xmlns:xlink="http://www.w3.org/1999/xlink" viewBox="0 0 512 512" xml:space="preserve" fill="#f5f5f5" stroke="#f5f5f5"><g id="SVGRepo_bgCarrier" stroke-width="0"></g><g id="SVGRepo_tracerCarrier" stroke-linecap="round" stroke-linejoin="round"></g><g id="SVGRepo_iconCarrier"> <g> <path style="fill:#ce8df2;" d="M127.733,290.204v-85.511c0-70.84,57.427-128.267,128.267-128.267l0,0 c70.84,0,128.267,57.427,128.267,128.267v85.511H127.733z"></path> <polygon style="fill:#ce8df2;" points="281.653,384.266 230.347,384.266 221.795,418.471 290.205,418.471 "></polygon> </g> <path style="fill:#7988be;" d="M256,255.999c-28.293,0-51.307-23.014-51.307-51.307s23.014-51.307,51.307-51.307 s51.307,23.014,51.307,51.307S284.293,255.999,256,255.999z"></path> <g> <path style="fill:#e3581c;" d="M25.119,102.078c6.598,19.765,27.017,34.205,51.307,34.205s44.709-14.439,51.307-34.205H25.119z"></path> <circle style="fill:#e3581c;" cx="76.426" cy="59.324" r="17.102"></circle> </g> <polygon style="fill:#e3581c;" points="127.733,290.204 153.386,384.266 358.614,384.266 384.267,290.204 "></polygon> <path style="fill:#5B5D6E;" d="M256,179.039c-14.148,0-25.653,11.506-25.653,25.653c0,14.148,11.506,25.653,25.653,25.653 s25.653-11.506,25.653-25.653C281.653,190.544,270.148,179.039,256,179.039z"></path> <path style="fill:#7988be;" d="M147.63,136.283h216.74C341.641,100.354,301.66,76.425,256,76.425S170.359,100.354,147.63,136.283z"></path> <path d="M503.983,461.761h-12.04l-83.335-175.005c-1.33-2.792-4.146-4.569-7.237-4.569h-9.087v-77.495 c0-75.147-61.136-136.284-136.284-136.284s-136.284,61.136-136.284,136.284v6.3L87.104,178.38c-1.716-1.716-2.662-3.998-2.662-6.425 v-28.126c23.842-2.781,43.757-17.834,50.894-39.212c0.816-2.446,0.406-5.133-1.1-7.225c-1.507-2.092-3.927-3.331-6.504-3.331h-43.29 V83.123c9.93-3.354,17.102-12.752,17.102-23.8c0-13.851-11.268-25.119-25.119-25.119S51.307,45.472,51.307,59.323 c0,11.048,7.172,20.446,17.102,23.8v10.939h-43.29c-2.578,0-4.998,1.24-6.504,3.331c-1.506,2.092-1.915,4.779-1.1,7.225 c7.137,21.378,27.053,36.431,50.894,39.212v28.126c0,6.709,2.612,13.018,7.357,17.762l43.95,43.949v48.521h-9.086 c-3.092,0-5.909,1.779-7.237,4.569L20.057,461.761H8.017c-4.427,0-8.017,3.589-8.017,8.017c0,4.427,3.589,8.017,8.017,8.017h34.205 c4.427,0,8.017-3.589,8.017-8.017c0-4.427-3.589-8.017-8.017-8.017h-4.406l13-27.298c0.011-0.004,0.021-0.006,0.031-0.011 l104.102-42.169h65.131l-6.061,24.244c-0.6,2.394-0.061,4.932,1.458,6.878c1.519,1.946,3.85,3.083,6.319,3.083h68.409 c2.469,0,4.799-1.137,6.319-3.083c1.52-1.945,2.058-4.483,1.458-6.878l-6.061-24.244h65.131l104.102,42.169 c0.011,0.004,0.021,0.006,0.031,0.011l12.999,27.298h-4.405c-4.427,0-8.017,3.589-8.017,8.017c0,4.427,3.589,8.017,8.017,8.017 h17.078c0.01,0,0.02,0.002,0.03,0.002c0.013,0,0.026-0.002,0.039-0.002h17.058c4.427,0,8.017-3.589,8.017-8.017 C512,465.35,508.411,461.761,503.983,461.761z M76.426,50.237c5.01,0,9.086,4.076,9.086,9.086c0,5.01-4.076,9.086-9.086,9.086 s-9.086-4.076-9.086-9.086C67.34,54.313,71.416,50.237,76.426,50.237z M38.282,110.095h76.287 c-8.272,11.073-22.572,18.171-38.143,18.171S46.555,121.168,38.282,110.095z M135.749,264.016h17.64 c4.427,0,8.017-3.589,8.017-8.017c0-4.427-3.589-8.017-8.017-8.017h-17.64v-43.29c0-25.63,8.066-49.41,21.784-68.944h124.122 c4.427,0,8.017-3.589,8.017-8.017c0-4.427-3.589-8.017-8.017-8.017H170.997C192.773,97.933,222.841,84.442,256,84.442 s63.227,13.492,85.003,35.273h-25.146c-4.427,0-8.017,3.589-8.017,8.017c0,4.427,3.589,8.017,8.017,8.017h38.609 c13.718,19.534,21.784,43.314,21.784,68.944v43.29H296.5c11.572-10.832,18.823-26.226,18.823-43.29 c0-32.711-26.612-59.324-59.324-59.324s-59.324,26.612-59.324,59.324c0,17.064,7.251,32.458,18.823,43.29h-27.909 c-4.427,0-8.017,3.589-8.017,8.017c0,4.427,3.589,8.017,8.017,8.017h188.66v18.171H135.749V264.016z M212.71,204.692 c0-23.871,19.42-43.29,43.29-43.29s43.29,19.42,43.29,43.29s-19.42,43.29-43.29,43.29S212.71,228.563,212.71,204.692z M352.49,376.249H159.51l-21.281-78.029h235.542L352.49,376.249z M115.692,298.22h5.917l22.17,81.288L61.02,413.032L115.692,298.22z M279.937,410.454h-47.874l4.543-18.171h38.789L279.937,410.454z M368.221,379.509l22.17-81.288h5.917l54.672,114.812 L368.221,379.509z"></path> </g></svg>
