<svg height="200px" width="200px" version="1.1" id="Layer_1" xmlns="http://www.w3.org/2000/svg" xmlns:xlink="http://www.w3.org/1999/xlink" viewBox="0 0 512 512" xml:space="preserve" fill="#000000"><g id="SVGRepo_bgCarrier" stroke-width="0"></g><g id="SVGRepo_tracerCarrier" stroke-linecap="round" stroke-linejoin="round"></g><g id="SVGRepo_iconCarrier"> <g transform="translate(0 1)"> <polygon style="fill:#FD9808;" points="264.533,434.2 349.867,434.2 349.867,348.867 264.533,348.867 "></polygon> <polygon style="fill:#FFFFFF;" points="179.2,434.2 264.533,434.2 264.533,348.867 179.2,348.867 "></polygon> <polygon style="fill:#FFDD09;" points="204.8,434.2 324.267,434.2 324.267,348.867 204.8,348.867 "></polygon> <path style="fill:#FD9808;" d="M349.867,75.8H256V53.613c0-6.827,5.12-11.947,11.947-11.947h69.12c7.68,0,12.8,5.12,12.8,11.947 V75.8z"></path> <path style="fill:#FFFFFF;" d="M273.067,75.8H179.2V53.613c0-6.827,5.12-11.947,11.947-11.947h69.12c7.68,0,12.8,5.12,12.8,11.947 V75.8z"></path> <path style="fill:#FFDD09;" d="M324.267,75.8H204.8V53.613c0-6.827,5.12-11.947,11.947-11.947h94.72c7.68,0,12.8,5.12,12.8,11.947 V75.8z"></path> <path style="fill:#FD9808;" d="M349.867,348.867H256V326.68c0-6.827,5.12-11.947,11.947-11.947h69.12 c6.827,0,11.947,5.12,11.947,11.947v22.187H349.867z"></path> <path style="fill:#FFFFFF;" d="M273.067,348.867H179.2V326.68c0-6.827,5.12-11.947,11.947-11.947h69.12 c6.827,0,11.947,5.12,11.947,11.947v22.187H273.067z"></path> <path style="fill:#FFDD09;" d="M324.267,348.867H204.8V326.68c0-6.827,5.12-11.947,11.947-11.947h94.72 c6.827,0,11.947,5.12,11.947,11.947v22.187H324.267z"></path> <path style="fill:#FD9808;" d="M384,314.733H247.467c-14.507,0-25.6-11.947-25.6-25.6V101.4c0-14.507,11.947-25.6,25.6-25.6H384 c14.507,0,25.6,11.947,25.6,25.6v187.733C409.6,302.787,397.653,314.733,384,314.733"></path> <path style="fill:#FFFFFF;" d="M281.6,314.733H145.067c-14.507,0-25.6-11.947-25.6-25.6V101.4c0-14.507,11.947-25.6,25.6-25.6 H281.6c14.507,0,25.6,11.947,25.6,25.6v187.733C307.2,302.787,295.253,314.733,281.6,314.733"></path> <path style="fill:#FFDD09;" d="M358.4,314.733H170.667c-14.507,0-25.6-11.947-25.6-25.6V101.4c0-14.507,11.947-25.6,25.6-25.6 H358.4c14.507,0,25.6,11.947,25.6,25.6v187.733C384,302.787,372.053,314.733,358.4,314.733"></path> <path style="fill:#1CD759;" d="M332.8,195.267c0,37.547-30.72,68.267-68.267,68.267s-68.267-30.72-68.267-68.267 S226.987,127,264.533,127S332.8,157.72,332.8,195.267"></path> <path style="fill:#54C9FD;" d="M298.667,195.267c0,18.773-15.36,34.133-34.133,34.133S230.4,214.04,230.4,195.267 s15.36-34.133,34.133-34.133S298.667,176.493,298.667,195.267"></path> <path d="M452.267,50.2c0,5.12-3.413,8.533-8.533,8.533c-5.12,0-8.533-3.413-8.533-8.533s3.413-8.533,8.533-8.533 C448.853,41.667,452.267,45.08,452.267,50.2"></path> <path d="M503.467,340.333c0,5.12-3.413,8.533-8.533,8.533c-5.12,0-8.533-3.413-8.533-8.533c0-5.12,3.413-8.533,8.533-8.533 C500.053,331.8,503.467,335.213,503.467,340.333"></path> <path d="M25.6,434.2c0,5.12-3.413,8.533-8.533,8.533s-8.533-3.413-8.533-8.533c0-5.12,3.413-8.533,8.533-8.533 S25.6,429.08,25.6,434.2"></path> <path d="M349.867,442.733H179.2c-5.12,0-8.533-3.413-8.533-8.533v-85.333c0-5.12,3.413-8.533,8.533-8.533h170.667 c5.12,0,8.533,3.413,8.533,8.533V434.2C358.4,439.32,354.987,442.733,349.867,442.733z M187.733,425.667h153.6V357.4h-153.6 V425.667z"></path> <path d="M102.4,391.533c-3.413,0-5.973-1.707-7.68-5.12c-1.707-4.267,0-9.387,4.267-11.093l76.8-34.133 c4.267-1.707,9.387,0,11.093,4.267c1.707,4.267,0,9.387-4.267,11.093l-76.8,34.133C104.96,391.533,103.253,391.533,102.4,391.533z"></path> <path d="M68.267,511c-0.853,0-1.707,0-2.56,0c-4.267-1.707-6.827-5.973-5.973-10.24l34.133-119.467 c1.707-4.267,5.973-6.827,10.24-5.973c4.267,1.707,6.827,5.973,5.973,10.24L75.947,505.027C75.093,508.44,71.68,511,68.267,511z"></path> <path d="M93.867,511H51.2c-5.12,0-8.533-3.413-8.533-8.533c0-5.12,3.413-8.533,8.533-8.533h42.667c5.12,0,8.533,3.413,8.533,8.533 C102.4,507.587,98.987,511,93.867,511z"></path> <path d="M477.867,511H435.2c-5.12,0-8.533-3.413-8.533-8.533c0-5.12,3.413-8.533,8.533-8.533h42.667 c5.12,0,8.533,3.413,8.533,8.533C486.4,507.587,482.987,511,477.867,511z"></path> <path d="M281.6,511h-34.133c-5.12,0-8.533-3.413-8.533-8.533c0-5.12,3.413-8.533,8.533-8.533H281.6c5.12,0,8.533,3.413,8.533,8.533 C290.133,507.587,286.72,511,281.6,511z"></path> <path d="M264.533,511c-5.12,0-8.533-3.413-8.533-8.533V434.2c0-5.12,3.413-8.533,8.533-8.533c5.12,0,8.533,3.413,8.533,8.533 v68.267C273.067,507.587,269.653,511,264.533,511z"></path> <path d="M221.867,391.533c0,5.12-3.413,8.533-8.533,8.533c-5.12,0-8.533-3.413-8.533-8.533s3.413-8.533,8.533-8.533 C218.453,383,221.867,386.413,221.867,391.533"></path> <path d="M256,391.533c0,5.12-3.413,8.533-8.533,8.533c-5.12,0-8.533-3.413-8.533-8.533s3.413-8.533,8.533-8.533 C252.587,383,256,386.413,256,391.533"></path> <path d="M290.133,391.533c0,5.12-3.413,8.533-8.533,8.533s-8.533-3.413-8.533-8.533S276.48,383,281.6,383 S290.133,386.413,290.133,391.533"></path> <path d="M324.267,391.533c0,5.12-3.413,8.533-8.533,8.533c-5.12,0-8.533-3.413-8.533-8.533s3.413-8.533,8.533-8.533 C320.853,383,324.267,386.413,324.267,391.533"></path> <path d="M85.333,476.867c-3.413,0-6.827-2.56-7.68-5.973c-1.707-4.267,0.853-9.387,5.12-11.093l93.867-34.133 c4.267-1.707,9.387,0.853,11.093,5.12c1.707,4.267-0.853,9.387-5.12,11.093l-93.867,34.133 C87.04,476.867,86.187,476.867,85.333,476.867z"></path> <path d="M179.2,442.733c-1.707,0-3.413-0.853-5.12-1.707l-76.8-51.2c-4.267-2.56-5.12-7.68-2.56-11.947 c2.56-4.267,7.68-5.12,11.947-2.56l76.8,51.2c4.267,2.56,5.12,7.68,2.56,11.947C184.32,441.027,181.76,442.733,179.2,442.733z"></path> <path d="M426.667,391.533c-0.853,0-2.56,0-3.413-0.853l-76.8-34.133c-4.267-1.707-5.973-6.827-4.267-11.093 s6.827-5.973,11.093-4.267l76.8,34.133c4.267,1.707,5.973,6.827,4.267,11.093C432.64,389.827,430.08,391.533,426.667,391.533z"></path> <path d="M460.8,511c-3.413,0-6.827-2.56-8.533-5.973L418.133,385.56c-1.707-4.267,1.707-9.387,5.973-10.24 c4.267-0.853,9.387,1.707,10.24,5.973L468.48,500.76c1.707,4.267-1.707,9.387-5.973,10.24C462.507,511,461.653,511,460.8,511z"></path> <path d="M443.733,476.867c-0.853,0-1.707,0-2.56-0.853l-93.867-34.133c-4.267-1.707-6.827-6.827-5.12-11.093 s6.827-6.827,11.093-5.12l93.867,34.133c4.267,1.707,6.827,6.827,5.12,11.093C450.56,474.307,447.147,476.867,443.733,476.867z"></path> <path d="M349.867,442.733c-2.56,0-5.12-1.707-6.827-3.413c-2.56-4.267-1.707-9.387,2.56-11.947l76.8-51.2 c4.267-2.56,9.387-1.707,11.947,2.56c2.56,4.267,1.707,9.387-2.56,11.947l-76.8,51.2 C353.28,441.88,351.573,442.733,349.867,442.733z"></path> <path d="M384,323.267H145.067c-18.773,0-34.133-15.36-34.133-34.133V101.4c0-18.773,15.36-34.133,34.133-34.133H384 c18.773,0,34.133,15.36,34.133,34.133v187.733C418.133,307.907,402.773,323.267,384,323.267z M145.067,84.333 c-9.387,0-17.067,7.68-17.067,17.067v187.733c0,9.387,7.68,17.067,17.067,17.067H384c9.387,0,17.067-7.68,17.067-17.067V101.4 c0-9.387-7.68-17.067-17.067-17.067H145.067z"></path> <path d="M358.4,357.4H170.667v-51.2H358.4V357.4z M187.733,340.333h153.6v-17.067h-153.6V340.333z"></path> <path d="M358.4,84.333H170.667v-30.72c0-11.093,9.387-20.48,20.48-20.48h145.92c11.947,0,21.333,9.387,21.333,20.48V84.333z M187.733,67.267h153.6V53.613c0-1.707-1.707-3.413-3.413-3.413H191.147c-1.707,0-3.413,1.707-3.413,3.413V67.267z"></path> <path d="M290.133,50.2c-5.12,0-8.533-3.413-8.533-8.533V7.533c0-5.12,3.413-8.533,8.533-8.533c5.12,0,8.533,3.413,8.533,8.533 v34.133C298.667,46.787,295.253,50.2,290.133,50.2z"></path> <path d="M238.933,50.2c-5.12,0-8.533-3.413-8.533-8.533V24.6c0-5.12,3.413-8.533,8.533-8.533c5.12,0,8.533,3.413,8.533,8.533 v17.067C247.467,46.787,244.053,50.2,238.933,50.2z"></path> <path d="M264.533,272.067c-42.667,0-76.8-34.133-76.8-76.8s34.133-76.8,76.8-76.8s76.8,34.133,76.8,76.8 S307.2,272.067,264.533,272.067z M264.533,135.533c-33.28,0-59.733,26.453-59.733,59.733S231.253,255,264.533,255 s59.733-26.453,59.733-59.733S297.813,135.533,264.533,135.533z"></path> <path d="M264.533,237.933c-23.893,0-42.667-18.773-42.667-42.667S240.64,152.6,264.533,152.6c23.893,0,42.667,18.773,42.667,42.667 S288.427,237.933,264.533,237.933z M264.533,169.667c-14.507,0-25.6,11.093-25.6,25.6s11.093,25.6,25.6,25.6 c14.507,0,25.6-11.093,25.6-25.6S279.04,169.667,264.533,169.667z"></path> <path d="M162.133,109.933c0,5.12-3.413,8.533-8.533,8.533c-5.12,0-8.533-3.413-8.533-8.533s3.413-8.533,8.533-8.533 C158.72,101.4,162.133,104.813,162.133,109.933"></path> <path d="M204.8,118.467h-17.067c-5.12,0-8.533-3.413-8.533-8.533s3.413-8.533,8.533-8.533H204.8c5.12,0,8.533,3.413,8.533,8.533 S209.92,118.467,204.8,118.467z"></path> <path d="M366.933,280.6c0-5.12,3.413-8.533,8.533-8.533c5.12,0,8.533,3.413,8.533,8.533s-3.413,8.533-8.533,8.533 C370.347,289.133,366.933,285.72,366.933,280.6"></path> <path d="M341.333,289.133h-17.067c-5.12,0-8.533-3.413-8.533-8.533c0-5.12,3.413-8.533,8.533-8.533h17.067 c5.12,0,8.533,3.413,8.533,8.533S346.453,289.133,341.333,289.133z"></path> <path d="M59.733,87.747L22.187,50.2l37.547-37.547L97.28,50.2L59.733,87.747z M46.08,50.2l13.653,13.653L73.387,50.2L59.733,36.547 L46.08,50.2z"></path> <path d="M59.733,33.133c-5.12,0-8.533-3.413-8.533-8.533V7.533C51.2,2.413,54.613-1,59.733-1s8.533,3.413,8.533,8.533V24.6 C68.267,29.72,64.853,33.133,59.733,33.133z"></path> <path d="M102.4,58.733H85.333c-5.12,0-8.533-3.413-8.533-8.533s3.413-8.533,8.533-8.533H102.4c5.12,0,8.533,3.413,8.533,8.533 S107.52,58.733,102.4,58.733z"></path> <path d="M59.733,101.4c-5.12,0-8.533-3.413-8.533-8.533V75.8c0-5.12,3.413-8.533,8.533-8.533s8.533,3.413,8.533,8.533v17.067 C68.267,97.987,64.853,101.4,59.733,101.4z"></path> <path d="M34.133,58.733H17.067c-5.12,0-8.533-3.413-8.533-8.533s3.413-8.533,8.533-8.533h17.067c5.12,0,8.533,3.413,8.533,8.533 S39.253,58.733,34.133,58.733z"></path> </g> </g></svg>
