<svg height="200px" width="200px" version="1.1" id="Layer_1" xmlns="http://www.w3.org/2000/svg" xmlns:xlink="http://www.w3.org/1999/xlink" viewBox="0 0 512.001 512.001" xml:space="preserve" fill="#d6d1d1" stroke="#d6d1d1"><g id="SVGRepo_bgCarrier" stroke-width="0"></g><g id="SVGRepo_tracerCarrier" stroke-linecap="round" stroke-linejoin="round"></g><g id="SVGRepo_iconCarrier"> <circle style="fill:#8ED7E0;" cx="378.852" cy="133.659" r="124.312"></circle> <path style="fill:#64a7b4;" d="M326.463,221.559c-28.935-48.549-28.935-127.262,0-175.811c14.468-24.274,33.43-36.411,52.393-36.411 c-31.816,0-63.631,12.137-87.906,36.411c-48.549,48.549-48.549,127.262,0,175.811c24.274,24.274,56.09,36.411,87.906,36.411 C359.893,257.97,340.931,245.834,326.463,221.559z"></path> <circle style="fill:#f7f491;" cx="430.577" cy="81.934" r="30.207"></circle> <path d="M472.954,39.081c-9.562-9.562-20.426-17.572-32.292-23.808c-4.445-2.336-9.941-0.627-12.277,3.818 c-2.336,4.445-0.627,9.941,3.818,12.277c10.243,5.382,19.628,12.303,27.893,20.569c44.927,44.927,44.927,118.028,0,162.955 c-38.538,38.539-99.464,44.752-144.871,14.772c-4.188-2.766-9.829-1.612-12.596,2.577c-2.766,4.191-1.613,9.83,2.577,12.596 c22.288,14.716,47.795,21.901,73.197,21.901c15.676,0,31.308-2.748,46.114-8.146l-193.9,238.582 c-3.166,3.897-2.576,9.622,1.321,12.79c1.686,1.37,3.713,2.036,5.729,2.036c2.643,0,5.263-1.147,7.061-3.358l228.603-281.278 C524.965,175.316,524.843,90.969,472.954,39.081z"></path> <path d="M36.858,240.111L3.394,267.308c-3.896,3.166-4.488,8.893-1.321,12.79c1.796,2.211,4.418,3.358,7.061,3.358 c2.015,0,4.043-0.667,5.729-2.036l33.464-27.197c3.897-3.166,4.489-8.893,1.321-12.79C46.482,237.536,40.757,236.945,36.858,240.111 z"></path> <path d="M341.049,183.845c3.551-3.551,3.551-9.307,0-12.857c-3.551-3.551-9.307-3.551-12.857,0l-37.199,37.199 c-38.638-45.221-36.609-113.487,6.151-156.249c27.11-27.109,65.802-38.934,103.492-31.639c4.93,0.952,9.699-2.268,10.654-7.198 c0.954-4.93-2.268-9.699-7.198-10.654c-43.45-8.412-88.04,5.14-119.407,36.246L58.032,222.902c-3.896,3.168-4.488,8.893-1.321,12.79 c1.796,2.211,4.418,3.358,7.061,3.358c2.015,0,4.043-0.667,5.729-2.036L253.344,87.598c-16.213,44.543-7.968,96.049,24.738,133.499 L82.561,416.619c-3.551,3.551-3.551,9.307,0,12.857c1.775,1.775,4.102,2.663,6.428,2.663c2.326,0,4.654-0.887,6.428-2.663 L341.049,183.845z"></path> <path d="M391.044,81.695c0,10.497,4.088,20.365,11.51,27.787c7.661,7.661,17.725,11.492,27.787,11.492s20.128-3.831,27.787-11.492 c7.422-7.422,11.51-17.291,11.51-27.787c0-10.498-4.088-20.366-11.51-27.787c-15.322-15.322-40.254-15.322-55.576,0 C395.132,61.329,391.044,71.197,391.044,81.695z M415.411,66.764c4.117-4.117,9.523-6.175,14.931-6.175s10.814,2.058,14.931,6.175 c3.988,3.988,6.185,9.29,6.185,14.931c0,5.639-2.197,10.943-6.185,14.931c-8.233,8.232-21.628,8.232-29.862,0 c-3.988-3.988-6.185-9.292-6.185-14.931C409.228,76.054,411.423,70.752,415.411,66.764z"></path> </g></svg>
